<svg xmlns="http://www.w3.org/2000/svg" viewBox="0 0 800 500" width="800" height="500" preserveAspectRatio="xMidYMid slice" role="img" aria-label="Ilustrasi antarmuka dashboard admin SIPKL">
    <rect width="800" height="500" fill="#e5eeff" />
    <rect x="40" y="28" width="720" height="444" rx="18" fill="#ffffff" stroke="#d3e4fe" stroke-width="2" />
    <path d="M58 28h684a18 18 0 0 1 18 18v26H40V46a18 18 0 0 1 18-18Z" fill="#f8f9ff" />
    <circle cx="66" cy="50" r="5" fill="#ffdad6" />
    <circle cx="84" cy="50" r="5" fill="#dae2fd" />
    <circle cx="102" cy="50" r="5" fill="#c7ffca" />
    <rect x="126" y="42" width="170" height="16" rx="8" fill="#dce9ff" />
    <rect x="40" y="72" width="160" height="400" fill="#f8f9ff" />
    <rect x="60" y="92" width="120" height="26" rx="8" fill="#004ac6" />
    <rect x="72" y="101" width="66" height="8" rx="4" fill="#ffffff" />
    <rect x="60" y="130" width="120" height="10" rx="5" fill="#d3e4fe" />
    <rect x="60" y="162" width="120" height="10" rx="5" fill="#d3e4fe" />
    <rect x="60" y="194" width="120" height="10" rx="5" fill="#d3e4fe" />
    <rect x="60" y="226" width="120" height="10" rx="5" fill="#d3e4fe" />
    <rect x="60" y="258" width="120" height="10" rx="5" fill="#d3e4fe" />
    <rect x="60" y="290" width="120" height="10" rx="5" fill="#d3e4fe" />
    <rect x="60" y="322" width="120" height="10" rx="5" fill="#d3e4fe" />
    <g>
        <rect x="224" y="92" width="130" height="94" rx="14" fill="#ffffff" stroke="#d3e4fe" stroke-width="2" />
        <rect x="242" y="110" width="36" height="36" rx="10" fill="#2563eb" />
        <rect x="242" y="156" width="66" height="12" rx="6" fill="#0b1c30" />
    </g>
    <g>
        <rect x="366" y="92" width="130" height="94" rx="14" fill="#ffffff" stroke="#d3e4fe" stroke-width="2" />
        <rect x="384" y="110" width="36" height="36" rx="10" fill="#565e74" />
        <rect x="384" y="156" width="66" height="12" rx="6" fill="#0b1c30" />
    </g>
    <g>
        <rect x="508" y="92" width="130" height="94" rx="14" fill="#ffffff" stroke="#d3e4fe" stroke-width="2" />
        <rect x="526" y="110" width="36" height="36" rx="10" fill="#007f36" />
        <rect x="526" y="156" width="66" height="12" rx="6" fill="#0b1c30" />
    </g>
    <g>
        <rect x="650" y="92" width="110" height="94" rx="14" fill="#ffffff" stroke="#d3e4fe" stroke-width="2" />
        <rect x="668" y="110" width="36" height="36" rx="10" fill="#004ac6" />
        <rect x="668" y="156" width="58" height="12" rx="6" fill="#0b1c30" />
    </g>
    <rect x="224" y="204" width="286" height="248" rx="16" fill="#ffffff" stroke="#d3e4fe" stroke-width="2" />
    <rect x="244" y="224" width="130" height="12" rx="6" fill="#434655" opacity="0.7" />
    <g fill="#d3e4fe">
        <rect x="256" y="376" width="26" height="56" rx="8" />
        <rect x="300" y="336" width="26" height="96" rx="8" />
        <rect x="344" y="356" width="26" height="76" rx="8" />
        <rect x="388" y="296" width="26" height="136" rx="8" />
        <rect x="432" y="316" width="26" height="116" rx="8" />
    </g>
    <g fill="#2563eb">
        <rect x="256" y="316" width="26" height="56" rx="8" />
        <rect x="300" y="256" width="26" height="96" rx="8" />
        <rect x="344" y="286" width="26" height="76" rx="8" />
        <rect x="388" y="236" width="26" height="96" rx="8" />
        <rect x="432" y="266" width="26" height="106" rx="8" />
    </g>
    <rect x="528" y="204" width="232" height="248" rx="16" fill="#ffffff" stroke="#d3e4fe" stroke-width="2" />
    <rect x="548" y="224" width="110" height="12" rx="6" fill="#434655" opacity="0.7" />
    <g>
        <rect x="548" y="256" width="192" height="40" rx="10" fill="#eef4ff" />
        <rect x="560" y="270" width="96" height="10" rx="5" fill="#434655" opacity="0.7" />
        <rect x="668" y="268" width="60" height="14" rx="7" fill="#d3e4fe" />
    </g>
    <g>
        <rect x="548" y="308" width="192" height="40" rx="10" fill="#eef4ff" />
        <rect x="560" y="322" width="112" height="10" rx="5" fill="#434655" opacity="0.7" />
        <rect x="668" y="320" width="60" height="14" rx="7" fill="#c7ffca" />
    </g>
    <g>
        <rect x="548" y="360" width="192" height="40" rx="10" fill="#eef4ff" />
        <rect x="560" y="374" width="86" height="10" rx="5" fill="#434655" opacity="0.7" />
        <rect x="668" y="372" width="60" height="14" rx="7" fill="#c7ffca" />
    </g>
    <g>
        <rect x="548" y="412" width="192" height="24" rx="10" fill="#eef4ff" />
        <rect x="560" y="419" width="104" height="10" rx="5" fill="#434655" opacity="0.7" />
    </g>
</svg>
